<?xml version="1.0" encoding="utf-8"?>
<!-- Generator: Adobe Illustrator 19.1.0, SVG Export Plug-In . SVG Version: 6.00 Build 0)  -->
<svg version="1.1" id="Layer_1" xmlns="http://www.w3.org/2000/svg" xmlns:xlink="http://www.w3.org/1999/xlink" x="0px" y="0px"
	 viewBox="0 0 432 216" style="enable-background:new 0 0 432 216;" xml:space="preserve">
<style type="text/css">
	.st0{fill:#695141;}
	.st1{fill:#58240E;}
	.st2{fill:#D31E47;}
	.st3{fill:#8A221B;}
	.st4{fill:#981A32;}
	.st5{fill:#FBB041;}
	.st6{fill:#F68524;}
	.st7{fill:#F26741;}
	.st8{fill:#FFFFFF;}
</style>
<g>
	<g>
		<path class="st0" d="M270.2,80.1c0,0,0,0.2-0.1,0.5c0-0.1,0.1-0.1,0.1-0.2C270.2,80.1,270.2,80.1,270.2,80.1z"/>
		<path class="st1" d="M218,106.6l2,1.5c0.7,0.5,1.6,1,2,1.5c2.3,1.8,5,3.3,8.2,4.5c6.4,2.4,14.8,2.9,24.2,0.2
			c1.9-0.6,3.2-1,3.7-1.2c0.2-0.1,0.3-0.2,0.3-0.2s0,0-0.1,0.2c0,0-0.1,0-0.2,0.1c0,0-0.1,0-0.1,0.1c-1.4,0.6-4.3,2-7,3.3
			c1.8-0.8,2.1-0.6,4-1.6c0.1,0.1-0.7,0.7-2.4,1.9c-1.6,1.1-4.1,2.9-7.7,4.5c1.8-0.7,3.6-1.6,5.4-2.6c1.8-0.9,0.3,0.5,0.6,0.8
			c-1.7,1.2-3.5,2.1-3.4,2.4l0.6,1c0.9-0.6,2.1-1.6,3.4-2.6c1.2-1,2.4-2.1,3-2.9c-1.5,1.6-3,2.8-2.9,3l0.5,0.7
			c-1.5,1.7-3.6,3.4-6,4.9c-2.4,1.5-5,2.6-7,3.7l0.3,1.2c2.3-0.8,4.7-2.3,7.1-4c2.3-1.8,4.4-3.7,5.9-5.4c-1.4,1.8-1.4,2-1,2.5
			c-1.1,1.4-2.4,2.6-3.8,3.7c-1.4,1.1-2.9,2.1-4.5,3c-3.2,1.8-6.5,3.3-10,5.2c2.5-0.8,4.9-1.7,7-2.8c-1,1.2-2.8,2.5-5,3.4
			c0.3-0.1,0.7-0.2,1-0.3c6.7-2.3,12.4-5.9,17-9.9c2.9-2.5,6.9-5.6,9.8-9.3c2.9-3.6,4.9-7.7,5.1-10.3c-1,2.1-2.1,4.3-3.5,6.3
			c1.6-3.4,3.3-6.5,4.5-9.8c0.7-1.7,1.2-3.3,1.6-5c0.5-1.7,0.7-3.4,0.8-5.2c-0.5-0.1-0.6-0.2-0.6-2.5c-0.1,2.3-0.6,5-1.2,7.8
			c-0.8,2.7-1.8,5.4-3,7.3l-0.9-0.6c0.9-2,2.1-4.5,3.2-7.1c0.9-2.6,1.5-5.3,1.6-7.4l-0.7-0.1c-0.1,0,0.2-2.1,0.3-4.2
			c0,1-0.2,2.6-0.5,4.2s-0.7,3-1,4.2l-0.9-0.3c-0.2-0.1,0.6-2,1-4.1c-0.3-0.1-0.1-2.1-0.8-0.2c-0.7,1.9-1.5,3.7-2.4,5.5
			c1.7-3.6,2.4-6.5,2.8-8.6c0.5-1.9,0.6-2.9,0.5-2.9c-0.6,2-0.9,1.9-1.6,3.8c1.1-2.7,2-5.8,2.5-7.1c0-0.1,0-0.1,0-0.1
			c-0.2,0.6-0.7,1.7-1.6,3.4c-4.2,8.5-10.6,13.8-17,17.3c-3.3,1.7-6.7,2.9-9.9,3.7c-3.4,0.9-6.9,1.5-10.2,1.7
			c-6.5,0.5-12.1-0.8-16-2.8c-0.8-0.5-1.6-0.9-2.3-1.4c0.3,0.2,0.6,0.6,0.9,0.8C215.4,104.5,216.6,105.6,218,106.6z"/>
		<path class="st2" d="M203.8,87.9v-0.3v-0.1l0.1-0.6l0.2-1.1c1.5-5.8,3.2-10.4,5.8-14.6c2.5-4.2,6.3-8.2,12.2-12
			c2.9-1.8,6.2-3.6,9.9-5.1c1.8-0.8,3.7-1.6,5.8-2.3c1.9-0.7,3.8-1.4,5.9-2c4-1.1,8.1-2.3,12.5-2.9c4.4-0.7,9.1-1,14.1-1.2l2.3-0.1
			l0.5,0.2l-0.5-0.2c-4.4-0.1-8.7-0.3-12.5-0.3c-3.8,0-7.2,0.2-10,0.2c-1,0.1-0.5-0.3,0.1-0.9c0.6-0.6,1.1-1.1,0.2-1.6
			c-2,0-5.9,0.2-7.9,0.5c-0.9-0.7-0.5-1.6,0.1-2.4s1.1-1.6,0.1-2.4s-3.6-1.1-6.2-1.1s-5.2,0.2-6.3-0.5c-3.3-0.5-2.3-1.1,0.3-1.6
			c2.7-0.5,7-0.6,10.2-0.3c-2.1-1.4,4.3,0.3,4.3-0.6c0-1,0.1-2-0.9-3.3c-1.1-1.2-3.3-2.7-8-4.4c-2.4-1-0.1-2.5-0.1-3.7
			c-7.2-1.5-15-2-23.4-1c-8.2,1-17.2,3.7-25.2,8.8c-8,5-15,12.2-19.6,20.1c-4.7,7.9-7.3,16.5-8.2,24.4l-0.2,1.5
			c-0.1,0.6-0.1,1.1-0.2,1.7c-0.1,1.1-0.2,2.3-0.3,3.4c-0.1,2.3-0.1,4.6,0,7c0.3,4.7,1.4,9.5,3,13.8c3.3,8.8,8.7,15.8,14.6,21.1
			s12.4,9.1,19.1,11.5c6.7,2.5,13.3,3.6,19.8,3.6c4.2,0.1,9.6,0.5,14.4-0.7c2.3-0.5,4.3-1.1,6.1-1.9c-6.4,2-13.7,3-21,2.3
			c-7.8-0.8-15.7-3.5-22.5-7.8c-6.8-4.2-12.3-9.8-16.6-15.5c-5.4-6.8-9.4-15.6-10.5-24.9c-1.1-9.4,0.5-19.1,4.1-27.3
			c3.6-8.4,9.4-15.5,16.1-20.9c3.4-2.7,7.1-5,11.1-6.8c1.9-0.9,4.1-1.7,6.1-2.3c2-0.6,4.1-1,6.1-1.4c0.2,0.9-1.8,2.8,0.9,2.8
			c5.3-0.1,7.8,0.7,9,1.5c1.2,0.8,1.4,1.6,1.5,2.4c0,0.5-1.6,0.6-2.9,0.7c-1.4,0.2-2.5,0.3-1.2,0.7c-3.3,0.5-7.6,1.9-9.9,3.4
			c-2.4,1.5-3,2.4,0.1,1.4c1.2,0,3.6-1.1,6.2-1.8c2.6-0.8,5.2-1.1,6.3-0.7c1.1,0.5,0.7,1.1,0.3,1.9s-0.7,1.6,0.3,1.9
			c1.8-0.6,5.6-1.4,7.6-1.5c1,0.2,0.5,0.8,0,1.2c-0.5,0.5-0.9,0.9,0,0.8c2.8-0.2,6.1-0.7,9.8-0.8c3.7-0.1,7.8,0.2,12.1,1.1l0,0l0,0
			l0.5,0.2l-0.5-0.2c-0.5,0-1.1-0.1-2.3-0.2c-9.5-0.9-17.9,1-25.1,4.2c-7.1,3.3-11.5,7.9-14.8,13.4c-3.3,5.5-4.9,11.6-4.7,16.8
			c0.1,5.3,1.5,9.4,4.1,13.5c2.4,3.6,4.6,6,7.4,7.9c-4.4-4.1-7.8-8.5-8.9-11.4c-0.7-1.6-0.7-2.5-0.6-2.8
			C203.6,88.2,203.8,88.1,203.8,87.9z"/>
		<path class="st3" d="M258.6,112.7c0,0-0.1,0.1-0.3,0.2c0.1,0,0.1-0.1,0.2-0.1C258.6,112.7,258.6,112.7,258.6,112.7z"/>
		<path class="st4" d="M205.7,94.8c-2.6-4.2-4-8.4-4.1-13.5c-0.1-5.2,1.5-11.3,4.7-16.8c3.3-5.5,7.7-10.2,14.8-13.4
			c7-3.2,15.6-5.1,25.1-4.2c1.1,0.1,1.8,0.2,2.3,0.2l0,0c-4.3-0.9-8.4-1.2-12.1-1.1c-3.7,0.1-7,0.6-9.8,0.8c-0.9,0.2-0.5-0.2,0-0.8
			c0.5-0.5,1-1,0-1.2c-1.9,0.2-5.8,0.9-7.6,1.5c-1-0.3-0.7-1.1-0.3-1.9s0.8-1.5-0.3-1.9c-1.1-0.5-3.7-0.1-6.3,0.7
			c-2.6,0.7-5,1.8-6.2,1.8c-3.2,1-2.5,0.1-0.1-1.4c2.4-1.5,6.7-2.8,9.9-3.4c-1.2-0.2-0.1-0.5,1.2-0.7c1.4-0.2,3-0.3,2.9-0.7
			c-0.1-0.8-0.2-1.6-1.5-2.4c-1.4-0.7-3.8-1.6-9-1.5c-2.7,0-0.7-1.9-0.9-2.8c-2,0.3-4.1,0.7-6.1,1.4c-2,0.6-4.2,1.4-6.1,2.3
			c-4,1.8-7.7,4.1-11.1,6.8c-6.9,5.4-12.5,12.5-16.1,20.9c-3.7,8.4-5.3,17.9-4.1,27.3c1.1,9.4,5.1,18.3,10.5,24.9
			c4.3,5.5,9.8,11.2,16.6,15.5c6.8,4.3,14.7,7,22.5,7.8c7.4,0.8,14.6-0.1,21-2.3c2.1-1,4-2.1,5-3.4c-2.3,1.1-4.6,2.1-7,2.8
			c3.6-1.9,6.9-3.4,10-5.2c1.6-0.9,3-1.9,4.5-3c1.4-1.1,2.7-2.4,3.8-3.7c-0.3-0.5-0.3-0.6,1-2.5c-1.5,1.7-3.5,3.6-5.9,5.4
			c-2.4,1.7-4.9,3.3-7.1,4l-0.3-1.2c2-1,4.6-2.3,7-3.7c2.4-1.5,4.5-3.3,6-4.9l-0.7-0.6c-0.1-0.2,1.5-1.5,2.9-3
			c-0.7,0.8-1.8,1.8-3,2.9c-1.2,1-2.5,1.9-3.4,2.6l-0.6-1c-0.1-0.2,1.7-1.2,3.4-2.4c-0.2-0.3,1.2-1.7-0.6-0.8
			c-1.8,1-3.6,1.8-5.4,2.6c3.6-1.6,6.1-3.4,7.7-4.5c1.6-1.1,2.4-1.8,2.4-1.9c-1.8,1-2,0.7-4,1.6c2.7-1.2,5.6-2.7,7-3.3
			c0.1,0,0.1,0,0.1-0.1c-0.6,0.2-1.8,0.7-3.7,1.2c-9.4,2.8-17.8,2.1-24.2-0.2c-3.2-1.1-5.9-2.7-8.2-4.5c-0.5-0.5-1.4-0.9-2-1.5
			l-2-1.5c-1.4-1-2.7-2-3.8-3.2c-0.3-0.2-0.7-0.6-0.9-0.8C210.3,100.8,208,98.3,205.7,94.8z M196.3,51.1c-0.1,0-0.2,0.1-0.3,0.1
			c-3.2,1.2-6,3-8.4,5.3c-1.2,1.1-2.3,2.4-3.4,3.6l-1.6,1.9c-0.5,0.6-0.9,1.2-1.4,1.9c-1.7,2.7-3.2,5.6-4.3,8.8
			c-1.2,3-2.1,6.3-2.8,9.7c-0.3,1.6-0.1,0.3,0.1-0.8c0,0.3-0.1,0.3-0.1,0.8c0,0,0-0.8,0.1-2.4l-0.1,1.1c0,0.3,0,0-0.1,0
			c0-0.3,0-0.8,0-0.8H174c0,0.3,0,1.1,0,1.6c0-0.3,0-0.8,0-0.8h-0.1c0-0.1,0-0.3,0-0.5c0,0.1,0,0.2,0,0.5l0,0l0,0
			c-0.2,2.4-0.2,4.9-0.1,7.4c0.2,2.7,0.1,0.7-0.2-1.2c0.1,0.7,0,0.7,0.1,1.4c0,0-0.3-1.2-0.8-3.8c0.1,0.7,0.1,1.2,0.2,1.9
			c0.1,0.7-0.1,0-0.1,0c-0.1-0.7-0.2-1.2-0.2-1.2h-0.1c0.1,0.5,0.3,1.4,0.5,2l0,0c0,0.2,0.1,0.5,0.1,0.6c-0.1-0.2-0.1-0.3-0.1-0.6
			l0,0c-0.1-0.3-0.2-0.7-0.2-0.7h-0.1c-0.5-1.2-0.8-3.3-1-4.5h-0.2c0.1,1.4,0.7,3.3,1.1,4.5c-0.2-0.7-0.2-0.7-0.3-0.6
			c-0.7-1.9-0.9-4-1.4-6c0.1,0.7,0.2,1.4,0.3,2c-0.6-1.4-0.8-4.7-0.7-6.8c-0.1-3.4,0.6-7.3,2-10.9c1.5-3.6,3.6-7,5.8-9.7
			c5-6.7,13-12,21-14c0,0.1-0.6,0.6,0.2,0.5c2.7-0.5,2.8-0.2,2.8,0c0,0.1-1.9,0.6-1.2,0.5c-1.9,0.6-5,2-3,1.4c0.7-0.1,3-1.2,3.8-1.1
			c0.7,0-0.5,0.6,0.2,0.6c0.6-0.2,1.8-0.7,2.5-0.9c0.7-0.1-0.6,0.6,0.1,0.3c1.8-0.6,4.3-1.4,7-1.7h0.1c0.1,0,0.1,0,0.1,0h-0.1
			c-0.1,0-0.3,0-0.7,0.1c-5.6,1.2-10.7,3.8-15.3,6.9c-2.3,1.6-4.4,3.3-6.4,5.1c0,0.1-0.1,0.2,0.1,0.2c1.6-0.5,1.6-0.3,1.7-0.2
			c0,0.1-1.1,0.5-0.7,0.3c-1.1,0.5-2.7,1.6-1.7,1c0.3-0.1,1.7-0.9,2.1-1s-0.2,0.5,0.1,0.3c0.3-0.2,1-0.6,1.4-0.7
			c0.3-0.1-0.2,0.3,0.1,0.2C193.5,52.2,194.8,51.5,196.3,51.1L196.3,51.1C196.5,51,196.4,51.1,196.3,51.1z"/>
		<polygon class="st3" points="248.4,47 248.4,47 248.9,47.3 		"/>
		<path class="st5" d="M173.1,87.4L173.1,87.4L173.1,87.4z"/>
		<path class="st6" d="M173.6,80.8c-0.1-1.2,0-2.4-0.1-3.6c0,0.5,0,0.8,0,1.2c-0.2-0.8,0.1-2.8,0.2-4c0.2-2,0.7-4.2,1.5-6.2
			c0.8-2.1,1.8-4.1,2.8-5.9c0.6-1,1.4-2.1,2.1-3.2c0.8-0.9,1.7-1.8,2.6-2.7c1.9-1.7,4.1-3.2,6.3-4.2c0,0,0,0,0,0.1
			c2-1.8,4.2-3.5,6.4-5.1c4.6-3,9.7-5.6,15.3-6.9c0.5-0.1,0.7-0.1,0.7-0.1h-0.1c-2.6,0.3-5.1,1.1-7,1.7c-0.6,0.2,0.6-0.5-0.1-0.3
			c-0.7,0.2-1.8,0.6-2.5,0.9c-0.7,0,0.5-0.6-0.2-0.6c-0.7,0-3.2,1-3.8,1.1c-1.9,0.7,1.1-0.8,3-1.4c-0.7,0,1.2-0.3,1.2-0.5
			c-0.1-0.2-0.1-0.6-2.8,0c-0.7,0.1-0.1-0.3-0.2-0.5c-8.1,2-16,7.3-21,14c-2.1,2.7-4.4,6.1-5.8,9.7c-1.5,3.6-2.1,7.4-2,10.9
			c0,2,0.1,5.5,0.7,6.8c-0.1-0.7-0.2-1.4-0.3-2c0.5,2,0.7,4.1,1.4,6c0.1,0,0.1,0,0.3,0.6c-0.5-1.2-0.9-3.2-1.1-4.5h0.2
			c0.2,1.4,0.6,3.3,1,4.5h0.1c0,0,0.1,0.3,0.2,0.7c-0.2-0.7-0.3-1.5-0.5-2h0.1c0,0,0.1,0.7,0.2,1.2c0.1,0,0.2,0.7,0.1,0
			c-0.1-0.7-0.2-1.2-0.2-1.9c0.3,2.6,0.8,3.8,0.8,3.8c-0.1-0.7,0-0.7-0.1-1.4c0.3,1.9,0.5,4,0.2,1.2c-0.1-2.5-0.1-5,0.1-7.4
			C173.7,80.8,173.6,80.8,173.6,80.8z"/>
		<path class="st5" d="M173.8,78.4L173.8,78.4c-0.2,0.8-0.1,1.9-0.1,2.7c0-0.1,0-0.2,0-0.5C173.7,80,173.7,79.1,173.8,78.4z"/>
		<path class="st5" d="M173.1,87.4c0,0.2,0.1,0.3,0.1,0.6C173.2,87.9,173.1,87.7,173.1,87.4z"/>
		<path class="st5" d="M211.7,40.4L211.7,40.4C211.8,40.4,211.8,40.3,211.7,40.4z"/>
		<path class="st7" d="M196.3,51.1C196.4,51.1,196.5,51,196.3,51.1L196.3,51.1z"/>
		<path class="st7" d="M173.7,81.2C173.7,81.1,173.7,81.1,173.7,81.2C173.7,81.1,173.7,81.1,173.7,81.2
			C173.7,81.1,173.7,81.1,173.7,81.2z"/>
		<path class="st2" d="M192.4,52.7c-0.3,0.1,0.3-0.3-0.1-0.2c-0.3,0.1-1,0.5-1.4,0.7c-0.5,0.1,0.2-0.5-0.1-0.3c-0.5,0-1.8,0.9-2.1,1
			c-1,0.6,0.6-0.6,1.7-1c-0.5,0.1,0.7-0.3,0.7-0.3c-0.1-0.1-0.1-0.3-1.7,0.2c-0.3,0.1-0.2-0.1-0.1-0.2c-2.1,1.8-4.1,3.8-5.9,5.9
			c-3.6,4.1-6.2,8.6-7.8,13.8c-0.9,2.8-1.5,5.6-1.7,8.7c0,0.1,0,0.3,0,0.5h0.1c0,0,0,0.3,0,0.8c0-0.3,0-1.1,0-1.6h0.1
			c0,0,0,0.3,0,0.8c0,0,0,0.3,0.1,0l0.1-1.1c-0.1,1.6-0.1,2.4-0.1,2.4c0-0.3,0.1-0.3,0.1-0.8c-0.1,1.1-0.5,2.4-0.1,0.8
			c0.7-3.4,1.7-6.7,2.8-9.7s2.6-6.1,4.3-8.8c0.5-0.7,0.9-1.4,1.4-1.9l1.6-1.9c1.1-1.2,2.1-2.5,3.4-3.6c2.4-2.3,5.2-4,8.4-5.3
			c0.2-0.1,0.3-0.1,0.3-0.1l0,0C194.8,51.5,193.5,52.2,192.4,52.7z"/>
		<path class="st2" d="M183.3,58.3c1.8-2,3.7-4.1,5.9-5.9v-0.1c-2.3,0.9-4.5,2.4-6.3,4.2c-0.9,0.9-1.8,1.8-2.6,2.7
			c-0.8,0.9-1.6,2-2.1,3.2c-1,1.8-2,3.8-2.8,5.9c-0.8,2.1-1.2,4.3-1.5,6.2c-0.1,1.2-0.5,3.2-0.2,4c0-0.5,0-0.8,0-1.2
			c0,1.2-0.1,2.4,0.1,3.6c0,0,0,0,0.1,0.3l0,0c0-0.8-0.1-1.9,0-2.7h0.1c0,0.7-0.1,1.6,0,2.3c0.3-3,0.8-5.9,1.7-8.7
			C177.1,66.9,179.7,62.3,183.3,58.3z"/>
	</g>
	<g>
		<path class="st8" d="M32,159.7c8,0,12.2,4.4,12.2,4.4l-2.4,3.5c0,0-3.8-3.6-9.7-3.6c-7.4,0-12.4,5.6-12.4,12.8s5,13.2,12.4,13.2
			c6.3,0,10.4-4.4,10.4-4.4l2.5,3.4c0,0-4.6,5.3-13,5.3c-10,0-17.2-7.7-17.2-17.5C15.1,167,22.3,159.7,32,159.7z"/>
		<path class="st8" d="M66.2,159.7c9.7,0,17.2,7.4,17.2,17c0,9.8-7.4,17.5-17.2,17.5S49,186.5,49,176.7
			C49,167.1,56.5,159.7,66.2,159.7z M66.2,189.9c6.8,0,12.3-5.6,12.3-13.2c0-7.3-5.5-12.8-12.3-12.8c-6.8,0-12.4,5.5-12.4,12.8
			C53.9,184.3,59.4,189.9,66.2,189.9z"/>
		<path class="st8" d="M90.2,160.2h10.3c3.5,0,5,0.3,6.2,0.8c3.4,1.2,5.6,4.6,5.6,9c0,4.3-2.4,7.9-6,9v0.1c0,0,0.3,0.5,1,1.5l7.1,13
			h-5.3l-7.1-13.3H95v13.3h-4.7V160.2z M101.6,176.3c3.6,0,6-2.4,6-6.1c0-2.5-0.9-4.2-2.7-5.2c-0.9-0.5-2-0.8-4.6-0.8h-5.4v12h6.8
			V176.3z"/>
		<path class="st8" d="M120.6,160.2h4.6l14.9,21.8c1.2,1.8,2.8,4.9,2.8,4.9h0.1c0,0-0.3-2.9-0.3-4.9v-21.8h4.7v33.5h-4.6l-14.9-21.7
			c-1.2-1.8-2.8-4.9-2.8-4.9H125c0,0,0.3,2.9,0.3,4.9v21.7h-4.7V160.2z"/>
		<path class="st8" d="M156.5,160.2h19.4v4.1h-14.8v10.5h12v4.1h-12v10.7h15.6v4.1h-20.2L156.5,160.2L156.5,160.2z"/>
		<path class="st8" d="M183.6,160.2h10.3c3.5,0,5,0.3,6.2,0.8c3.4,1.2,5.6,4.6,5.6,9c0,4.3-2.4,7.9-6,9v0.1c0,0,0.3,0.5,1,1.5
			l7.1,13h-5.3l-7.1-13.3h-7.1v13.3h-4.7V160.2z M195.1,176.3c3.6,0,6-2.4,6-6.1c0-2.5-0.9-4.2-2.7-5.2c-0.9-0.5-2-0.8-4.6-0.8h-5.4
			v12h6.8V176.3z"/>
		<path class="st8" d="M214.1,186.3c0,0,3.6,3.6,8.6,3.6c3.2,0,5.8-1.8,5.8-5c0-7.2-16.3-5.6-16.3-16c0-5.2,4.5-9.4,10.8-9.4
			c6.2,0,9.5,3.4,9.5,3.4l-2.1,3.8c0,0-3-2.9-7.3-2.9c-3.6,0-6.1,2.3-6.1,4.9c0,6.9,16.3,5.1,16.3,15.9c0,5.2-4,9.5-10.6,9.5
			c-7.1,0-11.1-4.4-11.1-4.4L214.1,186.3z"/>
		<path class="st8" d="M247,164.3h-11.5v-4.1h27.7v4.1h-11.5v29.3h-4.7v-29.3H247z"/>
		<path class="st8" d="M282.4,159.7c9.7,0,17.2,7.4,17.2,17c0,9.8-7.4,17.5-17.2,17.5s-17.2-7.7-17.2-17.5
			C265.3,167.1,272.8,159.7,282.4,159.7z M282.4,189.9c6.8,0,12.3-5.6,12.3-13.2c0-7.3-5.5-12.8-12.3-12.8
			c-6.8,0-12.4,5.5-12.4,12.8C270.1,184.3,275.6,189.9,282.4,189.9z"/>
		<path class="st8" d="M306.5,160.2h4.6L326,182c1.2,1.8,2.8,4.9,2.8,4.9h0.1c0,0-0.3-2.9-0.3-4.9v-21.8h4.7v33.5h-4.7l-14.9-21.7
			c-1.2-1.8-2.8-4.9-2.8-4.9h-0.1c0,0,0.3,2.9,0.3,4.9v21.7h-4.7v-33.5H306.5z"/>
		<path class="st8" d="M342.3,160.2h19.4v4.1H347v10.5H359v4.1h-12v10.7h15.6v4.1h-20.2v-33.4H342.3z"/>
		<path class="st8" d="M370.8,183.1c0,0,3.8,3.5,8.1,3.5c1.7,0,3.6-0.7,3.6-2.7c0-4.1-15.2-3.8-15.2-14.3c0-6.2,5.3-10.4,12-10.4
			c7.3,0,10.9,3.8,10.9,3.8l-3.5,6.8c0,0-3.4-2.9-7.4-2.9c-1.7,0-3.6,0.8-3.6,2.7c0,4.3,15.2,3.5,15.2,14.2c0,5.6-4.3,10.5-12,10.5
			c-8,0-12.4-4.9-12.4-4.9L370.8,183.1z"/>
		<path class="st8" d="M396.4,159.8h20.8v7.1h-12.4v7.1h10.4v7.1h-10.4v12.5h-8.4V159.8z"/>
	</g>
</g>
</svg>
